<?xml version="1.0" encoding="UTF-8" standalone="no"?>
<!DOCTYPE svg PUBLIC "-//W3C//DTD SVG 1.1//EN" "http://www.w3.org/Graphics/SVG/1.1/DTD/svg11.dtd">
<svg width="100%" height="100%" viewBox="0 0 1127 1147" version="1.1" xmlns="http://www.w3.org/2000/svg" xmlns:xlink="http://www.w3.org/1999/xlink" xml:space="preserve" xmlns:serif="http://www.serif.com/" style="fill-rule:evenodd;clip-rule:evenodd;stroke-linejoin:round;stroke-miterlimit:2;">
    <g transform="matrix(1,0,0,1,-11320.142313,-2652.15564)">
        <g id="Icons" transform="matrix(0.797354,0,0,0.811492,2407.703999,607.992863)">
            <rect x="11177.519" y="2519.018" width="1412.732" height="1412.732" style="fill:none;"/>
            <g transform="matrix(0.856296,0,0,0.841377,11883.885338,3225.383748)">
                <g transform="matrix(1,0,0,1,-1000,-1000)">
                    <path d="M615.661,274.13L1000,215.227C1000,215.227 1319.235,154.141 1478.494,281.766C1637.752,409.391 1661.75,432.298 1686.839,745.361C1711.928,1058.424 1721.745,1256.952 1721.745,1256.952C1721.745,1256.952 1739.198,1556.926 1495.947,1685.642C1252.696,1814.357 713.834,1794.723 713.834,1794.723C713.834,1794.723 420.406,1776.179 350.594,1468.57C280.782,1160.961 279.691,934.072 279.691,804.265C279.691,674.459 291.69,319.945 615.661,274.13Z" style="fill:white;"/>
                    <g transform="matrix(2,0,0,2,47.290828,151.09403)">
                        <path d="M439.742,46.579C454.516,44.631 481.143,41.708 499.002,40.085C517.024,38.461 547.71,37.162 568.005,37C593.657,37 609.568,37.649 621.583,39.435C630.999,40.897 642.364,42.845 646.748,44.144C651.294,45.28 659.899,48.203 666.231,50.638C672.563,52.911 684.09,58.269 692.208,62.49C700.326,66.712 712.341,74.18 719.16,79.051C725.979,83.921 735.558,91.39 740.266,95.611C745.786,100.482 748.547,104.054 747.897,105.353C747.248,106.489 737.182,119.153 725.329,133.441C713.64,147.728 698.378,166.399 691.721,174.842C685.065,183.284 671.264,199.845 661.36,211.372C651.456,222.9 636.52,238.649 628.239,246.279C619.959,253.91 611.516,262.353 609.731,264.951C607.782,267.548 607.295,269.01 608.594,268.035C609.893,267.061 618.335,260.405 627.265,253.261C636.195,246.117 650.807,232.641 659.737,223.387C668.666,214.133 683.603,197.247 693.02,186.045C702.437,174.842 715.101,159.093 721.433,151.138C727.765,143.02 737.182,130.518 742.539,123.212C747.897,115.906 752.768,110.061 753.417,109.899C754.229,109.899 758.613,114.607 763.159,120.29C767.867,125.972 775.173,136.363 779.395,143.507C783.778,150.488 789.461,161.691 792.221,168.348C794.819,175.004 798.553,185.558 800.339,191.889C802.125,198.221 804.885,211.697 806.671,221.926C808.457,232.154 810.892,255.209 812.353,273.068C813.652,290.928 817.386,343.532 820.471,389.966C824.043,443.869 826.154,486.082 825.991,506.864C825.991,524.723 825.504,542.096 824.855,545.505C823.718,551.675 823.556,551.837 807.482,558.169C798.553,561.741 780.693,568.56 767.705,573.268C754.716,578.139 736.045,584.146 726.303,586.906C716.562,589.666 700.813,593.401 691.396,595.349C681.98,597.135 665.257,599.408 654.054,600.22C642.851,601.031 632.948,601.843 632.136,602.006C631.324,602.168 633.435,602.817 637.007,603.629C640.579,604.279 648.534,604.928 654.866,604.928C661.198,605.09 672.401,604.279 680.031,603.467C687.662,602.493 701.138,600.382 710.068,598.596C718.997,596.81 733.61,593.238 742.539,590.641C751.469,588.043 764.62,583.659 771.764,581.061C778.907,578.301 792.383,572.781 801.8,568.56C811.217,564.339 820.146,560.604 821.608,560.28C824.043,559.793 824.368,560.442 823.718,564.176C823.557,565.384 823.077,568.467 822.455,572.457L822.454,572.465L822.451,572.483C821.82,576.535 821.044,581.518 820.309,586.419C819.01,596.161 816.25,609.799 814.626,616.455C812.84,623.112 809.106,635.127 806.346,643.245C803.586,651.362 797.416,665.975 792.383,675.716C787.512,685.458 779.07,700.07 773.55,708.025C768.192,715.981 758.937,727.671 753.093,734.003C747.248,740.172 737.019,749.427 730.362,754.297C723.706,759.33 712.341,766.474 705.197,770.208C698.053,773.78 687.175,778.489 680.843,780.275C674.511,782.223 664.77,784.496 658.925,785.47C653.08,786.444 641.39,787.743 632.948,788.555C624.505,789.367 611.029,791.477 602.911,793.263C594.794,795.212 579.37,797.647 568.492,798.621C557.614,799.758 548.359,800.407 547.872,799.92C547.385,799.433 544.138,784.821 540.404,767.448C536.669,750.076 533.098,732.541 532.286,728.482C531.474,724.423 526.766,702.505 521.732,679.775C516.862,657.045 512.316,638.049 511.991,637.562C511.504,637.075 511.504,642.27 512.153,648.927C512.64,655.584 515.563,676.041 518.648,694.387C521.732,712.734 527.253,743.744 530.825,763.389C534.396,783.035 537.156,799.271 536.832,799.595C536.507,799.758 521.732,800.732 503.873,801.544C486.014,802.355 467.667,803.492 463.284,803.979C460.624,804.264 457.464,804.66 454.714,805.005L454.698,805.007C452.755,805.25 451.017,805.468 449.808,805.602C445.099,806.414 444.45,805.927 443.151,801.219C442.772,800.082 440.672,793.609 437.406,783.542C432.278,767.74 424.278,743.083 415.55,716.306C401.1,672.469 387.138,627.983 384.54,617.267C381.78,606.552 377.883,587.231 375.61,574.242C373.5,561.254 370.415,539.985 368.791,526.834C366.681,509.624 365.544,503.779 364.57,506.539C363.758,508.487 363.596,517.742 364.083,527.159C364.732,536.575 365.869,551.512 366.843,560.442C367.655,569.372 369.928,585.12 371.714,595.349C373.5,605.577 377.396,623.599 380.481,635.127C383.566,646.654 390.872,670.521 396.717,687.893C402.724,705.265 414.414,738.873 422.856,762.578C431.299,786.282 437.956,805.765 437.793,806.09C437.469,806.252 429.188,807.551 419.447,809.012C409.705,810.473 393.47,811.61 383.728,811.61C249.296,817.714 181.809,727.887 164.87,682.21C161.785,674.093 157.239,659.156 154.966,648.927C152.693,638.698 149.283,621.489 147.497,610.773C145.711,600.057 142.302,577.002 140.191,559.63C138.081,542.258 135.158,514.495 133.697,497.934C132.398,481.374 130.612,454.422 129.638,437.862C128.826,421.301 127.69,389.966 127.04,368.048C126.391,343.207 126.716,318.529 127.852,302.293C128.989,288.005 130.774,269.172 132.073,260.405C133.372,251.8 136.132,237.512 137.918,228.907C139.867,220.14 143.925,205.69 147.01,196.76C150.095,187.831 155.453,175.004 158.7,168.348C162.11,161.691 167.305,152.112 170.552,147.241C173.637,142.37 178.67,135.389 181.43,131.817C184.353,128.245 191.983,119.803 198.64,113.146C205.134,106.489 215.85,97.722 222.182,93.663C239.23,82.735 253.842,78.239 276.572,71.907C284.527,70.446 291.671,69.309 292.321,69.309C293.132,69.309 293.944,74.667 294.431,80.999C294.918,87.493 296.38,107.788 297.678,126.135C299.14,144.481 301.25,168.185 302.712,178.901C304.01,189.616 307.258,210.723 310.018,225.985C312.615,241.246 317.811,265.275 321.545,279.563C325.117,293.85 330.799,312.684 334.047,321.451C337.294,330.056 340.054,337.037 340.054,336.875C340.216,336.55 337.456,323.562 334.047,307.975C330.637,292.389 326.253,272.257 324.468,263.327C322.519,254.397 320.409,242.708 319.597,237.35C319.149,233.652 317.772,224.541 316.215,214.233C315.516,209.605 314.781,204.736 314.077,200.007C311.804,184.746 307.258,151.625 304.01,126.135C300.763,100.644 298.003,77.265 297.841,74.18C297.678,69.309 298.166,68.497 301.737,68.01C304.01,67.686 329.988,63.627 359.374,58.756C388.761,53.885 424.967,48.365 439.742,46.579ZM608.107,71.42C607.295,70.77 594.144,69.959 578.882,69.796C563.458,69.634 542.19,70.283 531.474,71.095C522.577,71.634 506.963,73.069 493.742,74.284C491.04,74.532 488.438,74.771 486.014,74.992C471.726,76.453 459.712,77.914 459.225,78.401C458.737,78.888 460.036,88.143 462.147,99.021C464.258,109.899 467.992,127.596 470.752,138.311C473.35,149.027 479.682,172.082 484.552,189.454C491.209,213.158 493.157,222.25 492.346,225.985C491.696,228.582 491.209,231.992 491.371,233.291C491.534,234.59 496.08,249.202 501.275,265.762L510.692,295.799C548.197,261.216 560.049,249.851 561.348,248.39C562.647,246.766 571.252,237.837 580.506,228.42L597.391,211.372C600.801,189.941 602.262,180.524 602.749,176.465C603.886,169.484 603.723,168.997 599.339,167.211C596.904,166.075 591.546,162.503 587.65,159.093C583.753,155.684 578.72,150.001 576.447,146.429C574.174,142.857 571.414,137.012 570.115,133.441C568.816,129.869 567.193,118.504 566.381,108.275C565.407,94.799 565.569,88.954 566.868,87.493C568.004,86.357 569.141,85.383 569.628,85.383C570.115,85.383 575.311,89.279 581.318,93.988C587.325,98.696 595.768,107.139 599.989,112.821C604.373,118.504 608.269,123.05 608.919,122.887C609.73,122.887 610.055,111.685 609.73,97.884C609.568,84.084 608.756,72.232 608.107,71.42ZM637.818,76.615C632.948,75.317 628.077,74.18 627.265,74.18C626.129,74.18 625.804,80.187 626.129,90.74C626.453,99.995 627.265,108.113 627.914,108.762C628.402,109.412 633.11,103.242 638.305,94.962C643.338,86.681 647.397,79.7 647.235,79.538C647.006,79.308 644.831,78.674 641.857,77.806C640.621,77.445 639.248,77.044 637.818,76.615ZM680.031,93.825C671.589,89.279 663.796,85.545 662.984,85.707C662.172,85.707 655.353,97.884 648.047,112.821C640.741,127.758 632.461,145.78 629.538,152.924C626.778,160.067 623.531,170.296 622.394,175.654C621.258,181.011 620.771,185.72 621.095,186.207C621.42,186.694 639.604,169.159 661.36,147.241C698.865,109.736 700.976,107.301 698.216,104.703C696.754,103.242 688.474,98.371 680.031,93.825ZM248.484,131.33C246.698,124.998 244.587,119.64 243.613,119.64C242.801,119.64 238.418,122.4 234.196,125.81C229.813,129.219 221.857,136.85 216.499,142.533C211.142,148.215 203.673,157.632 199.777,163.477C195.88,169.322 190.36,179.063 187.437,185.395C184.515,191.727 180.456,201.144 178.67,206.502C176.722,211.859 173.799,222.088 172.013,229.232C170.227,236.376 167.792,249.202 166.331,257.644C164.87,266.087 163.084,281.024 162.109,290.928C161.298,300.669 160.486,327.458 160.648,350.188C160.648,372.919 161.298,402.468 161.785,415.619C162.759,434.29 163.408,439.972 165.357,441.109C166.656,441.921 177.533,447.116 189.223,452.474C201.075,457.832 211.142,461.891 211.629,461.404C212.116,460.917 209.518,456.371 206.108,451.175C202.537,446.142 197.828,437.699 195.555,432.504C193.282,427.471 190.522,419.84 189.71,415.456C188.411,409.611 188.411,407.338 190.035,405.715C191.172,404.578 193.445,404.091 194.906,404.578C196.854,405.065 198.315,407.826 198.965,412.047C199.777,415.781 200.588,419.028 201.075,419.191C201.562,419.515 204.485,413.508 207.57,406.04C210.655,398.571 214.389,392.077 215.688,391.59C216.986,391.103 219.259,391.752 220.558,393.213C222.344,394.999 223.156,400.519 223.481,413.183C223.968,426.334 223.318,433.153 221.045,441.434L218.123,452.312C229.65,466.924 235.495,472.444 238.58,473.905C241.665,475.529 249.133,478.938 255.465,481.536C260.031,483.579 269.044,487.489 277.961,491.358C281.093,492.717 284.213,494.07 287.125,495.336C298.328,500.37 307.582,504.266 307.907,503.941C308.069,503.779 306.446,493.713 304.335,481.698C302.224,469.684 299.302,452.149 297.841,442.732C296.38,433.316 291.996,398.733 287.937,365.612C283.716,332.491 278.683,293.526 276.572,278.751C274.461,263.976 270.889,242.87 268.616,231.667C266.343,220.464 261.148,196.923 257.089,179.226C253.03,161.691 250.27,146.267 250.757,145.13C251.244,144.156 250.27,137.824 248.484,131.33ZM434.871,208.125C428.377,189.292 421.07,169.646 418.635,164.289C416.037,158.931 413.927,155.197 413.927,156.171C413.927,156.983 416.362,166.886 419.284,178.089C422.369,189.292 428.864,211.21 433.897,226.796C438.767,242.383 446.074,266.087 449.97,279.563C454.029,292.876 461.335,319.665 466.368,338.823C471.239,357.982 477.571,383.634 480.169,395.649C482.929,407.663 489.586,439.161 494.943,465.463C500.301,491.765 506.958,524.723 509.718,538.524C512.478,552.324 515.4,565.15 516.05,566.936C517.349,569.859 517.511,569.859 517.511,566.125C517.673,563.852 516.537,553.298 515.238,542.583C513.939,531.867 509.88,505.89 506.308,484.946C502.736,464.001 497.379,433.965 494.294,418.379C491.209,402.792 487.15,383.472 485.202,375.354C483.254,367.236 478.87,349.701 475.298,336.388C471.726,322.912 467.018,305.865 464.745,298.234C462.309,290.603 457.276,274.854 453.542,263.327C452.751,260.987 451.773,258.091 450.663,254.806C446.305,241.909 439.917,223.006 434.871,208.125ZM759.587,191.889C759.587,191.402 759.1,191.078 758.613,191.078C758.126,191.078 749.196,199.683 738.643,210.074C728.252,220.627 713.802,235.401 706.82,243.032C699.677,250.663 685.389,266.412 674.998,277.939C664.77,289.629 649.021,307.813 640.091,318.529C631.162,329.244 618.011,345.642 610.867,355.059C603.561,364.476 593.332,378.601 588.137,386.719C582.779,394.837 576.447,404.578 574.174,408.637C571.901,412.696 569.466,417.729 568.816,420.002C568.167,422.275 571.576,418.541 576.447,411.884C581.155,405.228 589.598,393.7 595.118,386.394C600.801,378.926 605.347,371.782 605.347,370.483C605.347,369.184 606.808,367.236 608.594,366.424C610.38,365.612 617.524,357.982 624.343,349.701C628.11,345.321 632.066,340.657 635.267,336.883C637.999,333.662 640.181,331.09 641.228,329.894C643.502,327.468 650.021,319.807 656.161,312.59L657.464,311.06C664.12,303.429 682.629,281.998 698.703,263.327C714.776,244.818 735.071,221.276 743.676,211.21C752.443,200.982 759.587,192.377 759.587,191.889ZM779.719,284.433C778.42,265.6 776.634,248.715 775.823,246.929C774.524,243.844 773.712,244.493 768.029,254.235C764.458,260.08 756.502,271.445 750.495,279.563C744.487,287.518 735.233,299.208 730.038,305.54C724.842,311.872 720.621,317.392 720.621,318.042C720.621,318.853 726.953,319.34 734.746,319.34C742.702,319.34 754.067,320.477 760.399,321.776C766.568,323.075 774.199,324.211 776.959,324.211C781.018,324.211 782.317,323.562 782.317,321.289C782.317,319.827 781.18,303.105 779.719,284.433ZM784.752,358.306C771.601,354.572 767.542,353.598 767.218,353.598C767.055,353.76 764.62,354.247 762.022,354.572C759.262,354.897 749.521,356.683 740.104,358.469C730.687,360.255 715.425,364.314 706.009,367.561C696.592,370.646 682.629,376.49 674.674,380.387C666.88,384.284 658.925,389.154 656.814,391.265C656.15,391.985 654.54,393.706 652.302,396.1C647.979,400.724 641.31,407.858 634.571,415.132C624.343,426.172 611.841,439.323 606.97,444.356C602.1,449.389 591.871,458.968 584.24,465.463C576.609,471.957 569.953,478.127 569.303,479.101C568.816,480.075 569.466,484.458 570.765,489.004C572.226,493.388 577.259,511.41 581.967,528.782C586.838,546.154 591.222,560.767 591.709,561.254C592.196,561.741 598.69,562.39 605.834,562.715C615.251,563.04 626.129,562.066 643.501,558.818C656.814,556.545 668.991,554.272 670.29,553.948C671.589,553.461 674.024,550.701 675.485,547.453L678.408,541.771C669.478,536.738 664.283,530.893 660.386,525.048C656.814,519.528 652.755,511.248 651.456,506.864C650.158,502.318 649.346,495.174 649.508,490.79C649.833,485.92 650.969,482.185 652.431,481.211C654.216,480.075 657.301,481.211 664.607,486.082C669.965,489.654 676.947,495.499 680.031,498.908C683.279,502.48 686.85,507.676 688.149,510.598C689.448,513.521 691.072,515.956 691.721,515.794C692.533,515.794 693.02,514.982 693.02,514.17C693.02,513.358 696.43,506.864 700.651,499.882C704.872,493.063 710.879,483.971 713.964,479.588C717.211,475.366 721.108,471.47 722.569,471.145C724.193,470.658 726.953,470.658 728.739,471.145C730.525,471.632 731.986,473.256 731.986,474.717C731.824,476.341 727.927,483.322 723.056,490.141C718.185,497.122 714.127,503.779 714.127,504.753C714.127,505.89 711.042,513.033 707.47,520.664C703.736,528.295 699.677,537.225 698.54,540.472C697.241,543.882 696.592,546.642 697.079,546.642C697.566,546.642 703.249,545.18 709.581,543.394C716.075,541.608 730.849,536.9 742.539,532.679C754.067,528.62 770.14,523.262 778.258,520.664L792.87,516.118C792.221,480.075 790.435,444.518 788.486,413.833L784.752,358.306ZM424.155,452.474C422.694,444.031 421.233,436.725 420.908,436.238C420.421,435.751 420.259,441.109 420.259,447.928C420.259,454.909 421.395,468.872 422.856,478.776C424.318,488.842 426.104,498.584 426.915,500.37C427.889,502.48 428.052,497.285 427.565,485.757C427.078,476.016 425.454,460.917 424.155,452.474ZM154.316,452.799C146.198,447.278 138.892,442.732 138.405,442.732C137.756,442.732 137.593,443.382 137.918,444.194C138.243,445.005 144.737,450.526 152.368,456.695C159.999,462.703 178.67,478.289 193.932,491.277C209.031,504.266 228.676,520.989 237.281,528.295C245.886,535.764 260.174,547.129 268.779,553.785C277.546,560.28 287.125,566.936 289.885,568.398C292.808,569.859 295.568,570.995 296.055,570.995C296.542,570.995 290.048,565.313 281.767,558.331C279.854,556.647 277.48,554.567 274.819,552.233C266.189,544.668 254.534,534.451 245.724,526.509C234.034,515.956 212.116,497.285 197.016,485.108C181.755,472.931 162.597,458.319 154.316,452.799ZM262.771,592.751C247.185,582.847 233.06,574.405 231.436,573.755C229.975,573.106 229.001,573.106 229.326,573.755C229.65,574.567 236.632,580.25 245.074,586.582C253.517,592.914 267.642,602.817 276.572,608.662C285.502,614.507 302.549,624.573 314.239,630.905C326.091,637.237 336.644,642.27 337.618,641.946C338.593,641.783 334.534,638.374 328.364,634.477C325.13,632.435 320.603,629.5 315.997,626.515C311.817,623.805 307.572,621.054 304.173,618.891C297.029,614.182 278.358,602.493 262.771,592.751ZM183.867,607.201L183.865,607.201C182.891,606.714 181.917,608.175 181.917,610.611C181.755,612.884 183.378,623.112 185.651,633.016C187.762,643.082 191.009,655.746 192.795,661.104C194.419,666.462 197.016,673.768 198.64,677.34C200.101,680.912 204.485,688.218 208.382,693.576C212.116,698.933 219.584,707.376 224.78,712.247C230.137,717.28 239.067,724.748 244.912,728.807C250.757,732.866 261.473,739.198 268.779,742.932C276.247,746.504 290.859,752.511 301.25,755.921C311.804,759.493 330.475,764.364 342.652,766.961C354.828,769.397 365.544,770.858 366.193,770.208C366.843,769.559 364.245,755.921 360.349,740.172C356.452,724.424 351.419,703.317 349.308,693.576L345.249,675.716C335.861,670.553 327.067,665.898 319.234,661.753C316.23,660.163 313.367,658.648 310.667,657.207C300.763,652.174 285.177,644.543 275.76,640.484C266.343,636.425 252.056,630.418 244.1,627.333C235.982,624.249 219.584,618.566 207.57,614.832C195.561,611.099 184.849,607.529 183.867,607.201ZM664.607,640.647C667.043,639.673 666.231,639.348 661.36,639.51C657.788,639.51 650.482,640.484 645.124,641.621C639.767,642.757 630.675,645.518 624.83,647.791C618.985,649.901 609.081,654.772 602.911,658.506C596.579,662.24 589.273,667.111 586.676,669.384C583.915,671.657 583.266,672.956 585.052,671.982C586.838,671.17 595.281,667.111 603.723,662.89C612.166,658.831 628.564,652.499 640.254,648.765L640.906,648.553C652.195,644.897 662.855,641.443 664.607,640.647ZM762.834,659.48C762.834,658.993 762.347,658.669 761.535,658.831C760.886,658.831 751.631,661.429 740.916,664.513C730.2,667.598 710.068,672.956 696.267,676.366C682.467,679.775 661.36,684.321 649.67,686.432C637.818,688.542 628.077,691.14 628.077,691.952C628.077,692.764 632.785,705.59 638.792,720.365C644.962,735.951 649.183,748.29 648.534,749.914C647.722,752.187 648.372,752.836 651.132,752.836C653.242,752.836 660.386,751.375 667.043,749.427C673.699,747.641 684.74,743.257 691.396,739.848C698.053,736.276 708.282,729.619 714.127,724.748C719.971,720.04 728.414,711.76 732.96,706.402C737.506,701.206 744.65,691.79 748.546,685.458C752.605,679.126 757.476,671.008 759.424,667.111C761.21,663.377 762.834,659.967 762.834,659.48Z" style="fill:rgb(24,24,24);"/>
                    </g>
                </g>
            </g>
        </g>
    </g>
</svg>
